<svg width="50" height="50" viewBox="0 0 50 50" fill="none" xmlns="http://www.w3.org/2000/svg">
<path fill-rule="evenodd" clip-rule="evenodd" d="M25.3612 -0.000386671C23.3887 0.00891577 21.7822 1.61544 21.7729 3.58788L21.6895 21.2728L3.58819 21.3582C1.61574 21.3675 0.00922094 22.974 -8.14957e-05 24.9465C-0.00938393 26.9189 1.58206 28.5103 3.5545 28.501L21.6558 28.4157L21.5708 46.445C21.5615 48.4174 23.1529 50.0088 25.1254 49.9995C27.0978 49.9902 28.7043 48.3837 28.7136 46.4113L28.7987 28.382L46.4116 28.2989C48.384 28.2896 49.9905 26.6831 49.9998 24.7107C50.0091 22.7382 48.4177 21.1468 46.4453 21.1561L28.8323 21.2391L28.9158 3.55419C28.9251 1.58175 27.3336 -0.00968911 25.3612 -0.000386671Z" fill="#E4E4E4"/>
</svg>
