<svg width="13" height="21" viewBox="0 0 13 21" fill="none" xmlns="http://www.w3.org/2000/svg">
<path fill-rule="evenodd" clip-rule="evenodd" d="M6.15765 10.5413L0.767756 15.9746C-0.208555 16.9588 -0.208555 18.5545 0.767755 19.5387C1.74407 20.5229 3.32698 20.5229 4.30329 19.5387L11.3744 12.4106C11.8428 11.9384 12.0865 11.3254 12.1054 10.7068C12.1296 10.5521 12.1422 10.3935 12.1422 10.232C12.1422 10.0712 12.1297 9.91338 12.1057 9.75939C12.1233 9.0922 11.8795 8.41931 11.3744 7.91011L4.30332 0.782023C3.32701 -0.202162 1.74409 -0.202162 0.767782 0.782022C-0.208528 1.76621 -0.208528 3.36188 0.767783 4.34607L6.17323 9.7951C6.15275 9.93776 6.14215 10.0836 6.14215 10.232C6.14215 10.3364 6.1474 10.4396 6.15765 10.5413Z" fill="#F8F8F8"/>
</svg>
