<svg width="16" height="16" viewBox="0 0 16 16" fill="none" xmlns="http://www.w3.org/2000/svg">
<path d="M11.0352 12.9267C10.5349 13.4273 9.89717 13.768 9.20275 13.9059C8.50833 14.0437 7.78841 13.9725 7.13406 13.7012C6.4797 13.4299 5.92031 12.9707 5.52663 12.3817C5.13295 11.7927 4.92267 11.1004 4.9224 10.3923L4.91908 3.94863C4.91872 3.26505 5.18994 2.6096 5.67306 2.12649C6.15617 1.64337 6.81162 1.37215 7.4952 1.37251C8.17879 1.37286 8.83451 1.64475 9.31813 2.12837C9.80175 2.61198 10.0736 3.26771 10.074 3.95129L10.0765 9.53592C10.0672 9.95076 9.89832 10.3459 9.60505 10.6392C9.31178 10.9324 8.91665 11.1013 8.50181 11.1106C8.08422 11.11 7.68376 10.9437 7.38848 10.6481C7.0932 10.3525 6.92726 9.95188 6.92714 9.53429L6.92459 5.38177C6.92323 5.30572 6.93703 5.23019 6.96518 5.15956C6.99333 5.08894 7.03527 5.02464 7.08855 4.97043C7.14183 4.91621 7.20539 4.87316 7.27551 4.84379C7.34563 4.81441 7.42092 4.79931 7.49697 4.79935C7.57303 4.79938 7.64833 4.81457 7.71848 4.84402C7.78863 4.87346 7.85223 4.91658 7.90557 4.97085C7.95891 5.02512 8.00091 5.08946 8.02914 5.16011C8.05736 5.23077 8.07123 5.30632 8.06995 5.38236L8.0725 9.53488C8.07263 9.64872 8.11794 9.7579 8.19847 9.83844C8.27901 9.91897 8.38819 9.96428 8.50203 9.96441C8.61504 9.96178 8.72266 9.91575 8.80255 9.83585C8.88245 9.75596 8.92848 9.64834 8.93111 9.53533L8.92863 3.9507C8.92793 3.57115 8.77674 3.20721 8.50821 2.93869C8.23969 2.67017 7.87575 2.51898 7.4962 2.51827C7.11912 2.52676 6.75997 2.68025 6.49339 2.94682C6.22682 3.2134 6.07334 3.57255 6.06484 3.94963L6.06816 10.3933C6.06458 10.7153 6.12493 11.0349 6.24573 11.3336C6.36653 11.6322 6.54536 11.904 6.77188 12.1332C6.99839 12.3624 7.26809 12.5444 7.56533 12.6686C7.86258 12.7929 8.18146 12.857 8.50352 12.8571C8.82558 12.8573 9.1444 12.7936 9.44151 12.6696C9.73863 12.5456 10.0081 12.3639 10.2344 12.135C10.4607 11.9061 10.6393 11.6345 10.7597 11.3359C10.8802 11.0374 10.9403 10.7178 10.9363 10.3958L10.9342 5.38384C10.9328 5.30779 10.9466 5.23226 10.9747 5.16163C11.0029 5.09101 11.0448 5.02671 11.0981 4.9725C11.1514 4.91828 11.2149 4.87523 11.2851 4.84586C11.3552 4.81648 11.4305 4.80137 11.5065 4.80141C11.5826 4.80145 11.6579 4.81664 11.728 4.84608C11.7982 4.87553 11.8618 4.91865 11.9151 4.97292C11.9685 5.02719 12.0105 5.09153 12.0387 5.16218C12.0669 5.23283 12.0808 5.30839 12.0795 5.38443L12.0817 10.3956C12.0835 10.866 11.9918 11.332 11.8121 11.7665C11.6324 12.2011 11.3682 12.5956 11.0348 12.9271L11.0352 12.9267Z" fill="#68D594" fill-opacity="0.7"/>
</svg>
