<svg width="10" height="14" viewBox="0 0 10 14" fill="none" xmlns="http://www.w3.org/2000/svg">
<g clip-path="url(#clip0)">
<path d="M10 5.85799V6.92308C10 8.14904 9.57321 9.21552 8.71962 10.1225C7.86603 11.0295 6.81134 11.5496 5.55556 11.6827V12.7811H7.77778C7.92824 12.7811 8.05845 12.8338 8.1684 12.9392C8.27836 13.0446 8.33333 13.1694 8.33333 13.3136C8.33333 13.4578 8.27836 13.5827 8.1684 13.6881C8.05845 13.7935 7.92824 13.8462 7.77778 13.8462H2.22222C2.07176 13.8462 1.94155 13.7935 1.8316 13.6881C1.72164 13.5827 1.66667 13.4578 1.66667 13.3136C1.66667 13.1694 1.72164 13.0446 1.8316 12.9392C1.94155 12.8338 2.07176 12.7811 2.22222 12.7811H4.44445V11.6827C3.18866 11.5496 2.13397 11.0295 1.28038 10.1225C0.426794 9.21552 0 8.14904 0 6.92308V5.85799C0 5.71376 0.0549769 5.58894 0.164931 5.48354C0.274884 5.37814 0.405093 5.32544 0.555556 5.32544C0.706019 5.32544 0.836227 5.37814 0.946181 5.48354C1.05613 5.58894 1.11111 5.71376 1.11111 5.85799V6.92308C1.11111 7.94934 1.49161 8.8272 2.2526 9.55668C3.0136 10.2862 3.9294 10.6509 5 10.6509C6.0706 10.6509 6.9864 10.2862 7.7474 9.55668C8.50839 8.8272 8.88889 7.94934 8.88889 6.92308V5.85799C8.88889 5.71376 8.94387 5.58894 9.05382 5.48354C9.16377 5.37814 9.29398 5.32544 9.44445 5.32544C9.59491 5.32544 9.72512 5.37814 9.83507 5.48354C9.94502 5.58894 10 5.71376 10 5.85799ZM7.77778 2.66272V6.92308C7.77778 7.65533 7.50579 8.28218 6.96181 8.80363C6.41783 9.32508 5.76389 9.5858 5 9.5858C4.23611 9.5858 3.58218 9.32508 3.03819 8.80363C2.49421 8.28218 2.22222 7.65533 2.22222 6.92308V2.66272C2.22222 1.93047 2.49421 1.30362 3.03819 0.782175C3.58218 0.260725 4.23611 0 5 0C5.76389 0 6.41783 0.260725 6.96181 0.782175C7.50579 1.30362 7.77778 1.93047 7.77778 2.66272Z" fill="#383333" fill-opacity="0.5"/>
</g>
<defs>
<clipPath id="clip0">
<rect width="10" height="13.8462" fill="white"/>
</clipPath>
</defs>
</svg>
